# xmcd
#
# Track frame offsets: 
#        183
#        14820
#        28210
#        38075
#        49485
#        60068
#        73658
#        94050
#        115948
#        131375
#        144848
#        152488
#        173710
#        189505
#        207315
#        227335
#        254870
#        268190
#        280328
#        302653
#
# Disc length: 4249 seconds
#
# Revision: 4
# Processed by: cddbd v1.5.1PL0 Copyright (c) Steve Scherf et al.
# Submitted via: ExactAudioCopy v0.95a5
#
DISCID=1e109714
DTITLE=Various Artist - Blues Music
DYEAR=1990
DGENRE=Blues
TTITLE0=Muddy Waters - Baby please don't  go
TTITLE1=Muddy Waters - Rollin' and tumblin'
TTITLE2=John Lee Hooker - Dimples
TTITLE3=John Lee Hooker - Boom boom
TTITLE4=Lightning Slim - My babe
TTITLE5=Lightning Slim - Good morning heartache
TTITLE6=Etta James - I'd rather go blind
TTITLE7=Etta James - Respect yourself
TTITLE8=Otis Rush and Little Walter - Blue mood
TTITLE9=Otis Rush and Little Walter - I feel good
TTITLE10=Mississipi John Hurt - I'm satisfied
TTITLE11=Mississipi John Hurt - Monday morning blues
TTITLE12=Howlin' Wolf - Killin' floor
TTITLE13=Howlin' Wolf - Goin' down slow
TTITLE14=Buddy Guy and Junior Wells - Everyday I have the blues
TTITLE15=Buddy Guy and Junior Wells - Out of sight
TTITLE16=Elmore James - Dust My Broom
TTITLE17=Elmore James - Mean Mistreatin' Mama
TTITLE18=B.B. King - Everyday I have the blues
TTITLE19=B.B. King - The Letter
EXTD=
EXTT0=
EXTT1=
EXTT2=
EXTT3=
EXTT4=
EXTT5=
EXTT6=
EXTT7=
EXTT8=
EXTT9=
EXTT10=
EXTT11=
EXTT12=
EXTT13=
EXTT14=
EXTT15=
EXTT16=
EXTT17=
EXTT18=
EXTT19=
PLAYORDER=
